# xmcd
# 
# Track frame offsets:
#     182
#     11702
#     22587
#     34582
#     49597
#     59502
#     72807
#     85982
#     100197
#     113932
#     126627
#     139957
#     151182
#     163317
#     177907
#     190937
# 
# Disc length: 2714
# 
# Revision: 8
# Processed by: cddbd v1.5.2PL0 Copyright (c) Steve Scherf et al.
# Submitted via: fre:ac v1.0.31
# 
DISCID=d80a9810
DTITLE=Columbia Blues - Professor Longhair New Orleans Piano
DYEAR=1972
DGENRE=Blues
TTITLE0=In The Night
TTITLE1=Tipitina (alt)
TTITLE2=Tipitina
TTITLE3=Ball the Wall
TTITLE4=Who's Been Fooling You
TTITLE5=Hey Now Baby
TTITLE6=Mardi Gras In New Orleans (alt)
TTITLE7=She Walks Right In (alt)
TTITLE8=Hey Little Girl
TTITLE9=Willie Mae
TTITLE10=Walk Your Blues Away
TTITLE11=Professor Longhair Blues
TTITLE12=Boogie Woogie
TTITLE13=Longhair's Blues-Rhumba
TTITLE14=Mardi Gras in New Orleans
TTITLE15=She Walks Right In
EXTD=YEAR: 1989
EXTT0=
EXTT1=
EXTT2=
EXTT3=
EXTT4=
EXTT5=
EXTT6=
EXTT7=
EXTT8=
EXTT9=
EXTT10=
EXTT11=
EXTT12=
EXTT13=
EXTT14=
EXTT15=
PLAYORDER=
